:SAMPLES-PER-SECOND 30
:FULLY-SPECIFIED
:DEGREES
1
root  -83.0119 38.1586 -9.62419 -48.2955 80.8623 -52.5623
RightUpLeg  -15.4888 6.40345 16.0116
RightLeg  26.1997 1.1595 -4.51492
RightFoot  -12.0682 0.0990201 -9.493
RightToes  -6.98493e-010 -1.59028e-015 9.93923e-017
Spine  1.83395 4.10675 16.6684
Spine1  18.6807 6.78988 0.626811
HEad  -26.7835 -7.52433 3.05079
LeftShoulder1  9.93923e-017 0 1.22299e-017
LeftArm  13.537 69.5168 -46.6428
LeftForeArm  7.81102 -3.13609 -5.88741
LeftHand  1.13284 8.80142 -7.15534
RightShoulder  1.98785e-016 -4.96962e-017 1.55301e-017
RightArm  0.589059 -26.1628 77.6539
RightForeArm  -33.3562 51.1403 -51.4892
RightHand  1.79314 -12.4514 -11.7732
LeftUpLeg  -38.8571 -6.52869 13.296
LeftLeg  140.972 -9.89156 -4.64591
LeftFoot  12.9311 -1.29875 5.49382
LeftToes  -1.90082e-010 4.30011e-012 -7.87804e-012
2
root  -79.2564 38.6975 -9.21149 -32.5089 80.165 -36.0034
RightUpLeg  -7.13117 5.37716 14.4544
RightLeg  23.1904 2.7206 -3.2207
RightFoot  -10.5271 0.0781821 -5.15711
RightToes  -6.98493e-010 -1.59028e-015 9.93923e-017
Spine  2.64168 6.3384 16.4314
Spine1  16.457 9.5577 -2.40421
HEad  -25.7857 -8.35252 4.63068
LeftShoulder1  9.93923e-017 0 1.22299e-017
LeftArm  20.6411 70.3543 -32.0222
LeftForeArm  9.32057 -1.97271 -5.10635
LeftHand  1.12486 8.55134 -6.06227
RightShoulder  1.98785e-016 -4.96962e-017 1.55301e-017
RightArm  -0.443557 -17.2461 76.0349
RightForeArm  -36.2598 54.9704 -59.7015
RightHand  1.83447 -12.4154 -12.6666
LeftUpLeg  -47.2486 -4.71722 10.0761
LeftLeg  131.726 -11.2134 -3.85139
LeftFoot  6.68945 -0.0267355 0.256393
LeftToes  -1.90082e-010 4.30011e-012 -7.87804e-012
3
root  -74.5014 39.6308 -8.58801 -11.3008 81.4588 -13.6656
RightUpLeg  3.34877 0.119546 8.73074
RightLeg  18.2041 5.81939 -1.05245
RightFoot  -2.23635 -0.149976 1.33099
RightToes  -6.98493e-010 -1.59028e-015 9.93923e-017
Spine  2.67383 7.72093 12.4308
Spine1  14.2648 11.1054 -6.19189
HEad  -22.85 -9.79057 8.19923
LeftShoulder1  9.93923e-017 0 1.22299e-017
LeftArm  32.2808 69.6002 -17.1164
LeftForeArm  6.73658 -1.67964 -4.98921
LeftHand  1.06945 7.75445 -3.7886
RightShoulder  1.98785e-016 -4.96962e-017 1.55301e-017
RightArm  -1.26742 -11.8089 74.7451
RightForeArm  -46.0301 59.2776 -74.4702
RightHand  1.83284 -12.5349 -12.2014
LeftUpLeg  -51.8546 -4.96446 2.91327
LeftLeg  111.55 -14.2989 1.42398
LeftFoot  2.85334 0.484872 -2.97355
LeftToes  -1.90082e-010 4.30011e-012 -7.87804e-012
4
root  -70.1121 40.5743 -8.06592 6.49787 81.1334 4.09519
RightUpLeg  9.66434 -3.32882 3.0654
RightLeg  18.6965 9.33194 0.40441
RightFoot  4.05026 -0.959624 6.60592
RightToes  -6.98493e-010 -1.59028e-015 9.93923e-017
Spine  2.19749 8.47097 9.38663
Spine1  12.2438 11.8496 -10.2246
HEad  -18.6975 -10.6271 9.39778
LeftShoulder1  9.93923e-017 0 1.22299e-017
LeftArm  49.5668 69.4093 -3.55164
LeftForeArm  2.82301 -3.29602 -5.65195
LeftHand  0.989991 7.03063 -1.93732
RightShoulder  1.98785e-016 -4.96962e-017 1.55301e-017
RightArm  0.152215 -10.1373 75.0049
RightForeArm  -60.4291 61.5216 -90.4832
RightHand  1.91501 -13.1923 -11.3423
LeftUpLeg  -52.8242 -4.65587 -1.92091
LeftLeg  87.0985 -12.9951 7.50798
LeftFoot  -1.4576 -0.0723302 0.479045
LeftToes  -1.90082e-010 4.30011e-012 -7.87804e-012
5
root  -65.9363 40.9355 -7.7019 7.26767 78.8895 4.11178
RightUpLeg  10.5616 -2.92246 -0.0433176
RightLeg  29.7451 11.1321 0.917857
RightFoot  1.91731 -1.04261 7.86594
RightToes  -6.98493e-010 -1.59028e-015 9.93923e-017
Spine  1.2203 9.17736 8.772
Spine1  11.3993 12.3261 -12.244
HEad  -14.8129 -9.9211 7.93629
LeftShoulder1  9.93923e-017 0 1.22299e-017
LeftArm  67.2427 70.8352 8.36281
LeftForeArm  -2.53475 -8.50961 -4.52791
LeftHand  0.881298 6.21984 -0.883151
RightShoulder  1.98785e-016 -4.96962e-017 1.55301e-017
RightArm  3.71013 -9.91673 76.8191
RightForeArm  -72.6377 61.8064 -104.517
RightHand  1.89988 -13.2898 -10.7932
LeftUpLeg  -51.6519 -1.84247 -3.23217
LeftLeg  62.1747 -8.69177 7.66319
LeftFoot  -0.747119 0.511926 -4.48838
LeftToes  -1.90082e-010 4.30011e-012 -7.87804e-012
6
root  -61.7487 40.832 -7.38926 4.19955 76.6225 1.15058
RightUpLeg  11.1835 -1.4519 -3.06182
RightLeg  43.5184 9.66406 -0.553144
RightFoot  -2.46671 -0.619115 6.65701
RightToes  -6.98493e-010 -1.59028e-015 9.93923e-017
Spine  -0.755505 9.6687 8.49245
Spine1  13.4526 12.329 -11.8561
HEad  -12.1035 -8.34256 6.10534
LeftShoulder1  9.93923e-017 0 1.22299e-017
LeftArm  75.2954 73.3349 13.0279
LeftForeArm  -8.24304 -12.7175 -2.33082
LeftHand  0.777422 5.44546 -0.862198
RightShoulder  1.98785e-016 -4.96962e-017 1.55301e-017
RightArm  7.77209 -11.8624 79.3545
RightForeArm  -78.8795 61.1262 -113.654
RightHand  1.76421 -12.816 -10.0417
LeftUpLeg  -46.3977 0.710334 -3.27201
LeftLeg  36.9445 -7.02791 3.17862
LeftFoot  0.308851 1.06472 -8.92031
LeftToes  -1.90082e-010 4.30011e-012 -7.87804e-012
